<svg xmlns="http://www.w3.org/2000/svg" id="outline" viewBox="0 0 64 64" width="512" height="512"><path d="M57.591,6.226a1,1,0,0,0-.891-.149,26.8,26.8,0,0,1-12.733.194A23.411,23.411,0,0,1,32.638.332,1.1,1.1,0,0,0,31.882,0a1,1,0,0,0-.748.35c-.036.041-3.669,4.189-11.1,5.92A26.815,26.815,0,0,1,7.3,6.077,1,1,0,0,0,6,7.031V41.622a14.524,14.524,0,0,0,7.766,12.817l17.656,9.443a1,1,0,0,0,.939,0L50.232,54.44A14.524,14.524,0,0,0,58,41.622V7.031A1,1,0,0,0,57.591,6.226ZM56,41.622a12.528,12.528,0,0,1-6.7,11.052L31.9,61.867l-17.19-9.192A12.529,12.529,0,0,1,8,41.622V8.317a29.066,29.066,0,0,0,12.487-.1A24.98,24.98,0,0,0,31.91,2.412a26.285,26.285,0,0,0,11.6,5.807A29.064,29.064,0,0,0,56,8.317Z"></path><path d="M32.523,5.472a1,1,0,0,0-1.179.007,28.312,28.312,0,0,1-10.4,4.688,31.219,31.219,0,0,1-9.847.638.99.99,0,0,0-.766.257A1,1,0,0,0,10,11.8V41.622a10.54,10.54,0,0,0,5.652,9.29l15.782,8.44a.994.994,0,0,0,.471.118,1.007,1.007,0,0,0,.468-.116l15.981-8.445A10.533,10.533,0,0,0,54,41.622V20.061a1,1,0,0,0-2,0V41.622a8.538,8.538,0,0,1-4.583,7.521L31.908,57.337l-15.315-8.19A8.543,8.543,0,0,1,12,41.622V12.881a33.014,33.014,0,0,0,9.4-.767,30.6,30.6,0,0,0,10.55-4.605,31.773,31.773,0,0,0,10.66,4.605,33,33,0,0,0,9.4.767v3.077a1,1,0,0,0,2,0V11.8a1,1,0,0,0-.327-.739.981.981,0,0,0-.766-.257,31.209,31.209,0,0,1-9.847-.638A29.528,29.528,0,0,1,32.523,5.472Z"></path><path d="M49,29a3,3,0,0,0-3-3H37.194c1.378-1.77,3.113-4.719,2.8-8.081C39.785,15.611,38.34,14,36.483,14c-2.844,0-3.332,2.766-3.516,3.807a4.82,4.82,0,0,1-2.522,3.361c-.5.33-.885.546-1.228.735a7.436,7.436,0,0,0-1.924,1.39A10.038,10.038,0,0,0,25.333,26H23v-.96a1,1,0,0,0-1-1H15.944a1,1,0,0,0-1,1v15.9a1,1,0,0,0,1,1H22a1,1,0,0,0,1-1V40h2.649l4.726,3.781A1,1,0,0,0,31,44H43a3,3,0,0,0,2.614-4.472,3,3,0,0,0,1-4,3,3,0,0,0,1-4A3,3,0,0,0,49,29ZM21,39.939H16.944V26.04H21ZM46,30H45a1,1,0,0,0,0,2,1,1,0,0,1,0,2H44a1,1,0,0,0,0,2,1,1,0,0,1,0,2H43a1,1,0,0,0,0,2,1,1,0,0,1,0,2H31.351l-4.726-3.781A1,1,0,0,0,26,38H23V28h3a1.009,1.009,0,0,0,.957-.71,7.169,7.169,0,0,1,1.75-2.583,5.642,5.642,0,0,1,1.479-1.055c.382-.211.815-.451,1.369-.82a6.728,6.728,0,0,0,3.382-4.678C35.26,16.322,35.693,16,36.483,16s1.409.864,1.523,2.1c.4,4.337-3.688,8.12-3.73,8.157A1,1,0,0,0,34.949,28H46a1,1,0,0,1,0,2Z"></path></svg>
